<svg xmlns="http://www.w3.org/2000/svg" width="32" height="32" viewBox="0 0 32 32" fill="none">
  <!-- Rounded container representing the logo background (primary/15) -->
  <rect width="32" height="32" rx="8" fill="#49e8db" fill-opacity="0.15" />
  
  <!-- Waves paths scaled and centered to match Lucide Waves icon inside the box -->
  <g transform="translate(8, 8) scale(0.6667)" stroke="#f59e0b" stroke-width="2.2" stroke-linecap="round" stroke-linejoin="round" fill="none">
    <path d="M2 6c.6.5 1.2 1 2.5 1C7 7 7 5 9.5 5c2.6 0 2.6 2 5 2 2.5 0 2.5-2 5-2 1.3 0 1.9.5 2.5 1" />
    <path d="M2 12c.6.5 1.2 1 2.5 1 2.5 0 2.5-2 5-2 2.6 0 2.6 2 5 2 2.5 0 2.5-2 5-2 1.3 0 1.9.5 2.5 1" />
    <path d="M2 18c.6.5 1.2 1 2.5 1 2.5 0 2.5-2 5-2 2.6 0 2.6 2 5 2 2.5 0 2.5-2 5-2 1.3 0 1.9.5 2.5 1" />
  </g>
  
  <!-- Glowing accent pulse-dot in the top-right corner -->
  <circle cx="25" cy="7" r="2.5" fill="#f59e0b" />
</svg>
